<svg width="147" height="50" viewBox="0 0 147 50" fill="none" xmlns="http://www.w3.org/2000/svg">
<g clip-path="url(#clip0)">
<rect x="4" y="17" width="42" height="17" fill="white"/>
<path fill-rule="evenodd" clip-rule="evenodd" d="M11.2848 4.21326C15.4605 1.46622 20.3697 0 25.3917 0C32.1259 0 38.5844 2.63392 43.3463 7.32233C48.1081 12.0107 50.7833 18.3696 50.7833 25C50.7833 29.9445 49.2941 34.778 46.504 38.8892C43.714 43.0005 39.7483 46.2048 35.1086 48.097C30.4689 49.9892 25.3635 50.4842 20.438 49.5196C15.5125 48.555 10.9881 46.174 7.43705 42.6777C3.88597 39.1813 1.46765 34.7268 0.487905 29.8772C-0.491838 25.0277 0.0110018 20.0011 1.93284 15.4329C3.85467 10.8648 7.10918 6.96029 11.2848 4.21326ZM15.8604 30.5049C15.9631 30.5493 16.0737 30.5731 16.1858 30.575C16.3454 30.567 16.4995 30.5146 16.6302 30.424C16.7609 30.3334 16.8628 30.2081 16.9242 30.0628C16.9856 29.9175 17.0039 29.758 16.9771 29.6029C16.9503 29.4477 16.8794 29.3032 16.7726 29.1861L12.5153 24.9278L16.7782 20.6778C16.8559 20.603 16.9175 20.5135 16.9592 20.4146C17.0009 20.3158 17.0218 20.2098 17.0209 20.1028C17.0209 19.8846 16.9341 19.6751 16.779 19.5193C16.6239 19.3635 16.4129 19.2738 16.1914 19.2694C16.0818 19.27 15.9734 19.2921 15.8726 19.3346C15.7718 19.3771 15.6807 19.439 15.6046 19.5167L11.3388 23.7444L7.05607 19.5083C6.98003 19.4327 6.88951 19.3726 6.78975 19.3316C6.69 19.2906 6.58298 19.2695 6.47488 19.2694C6.25385 19.2745 6.0436 19.3646 5.88912 19.5203C5.73464 19.676 5.64818 19.8851 5.64824 20.1028C5.64919 20.3227 5.73843 20.5334 5.89652 20.6889L10.151 24.9111L5.89087 29.1528C5.80957 29.2285 5.74485 29.3198 5.7007 29.4211C5.65655 29.5224 5.6339 29.6315 5.63414 29.7417C5.63408 29.9593 5.72053 30.1684 5.87501 30.3241C6.0295 30.4799 6.23974 30.5699 6.46077 30.575C6.57008 30.5763 6.67853 30.556 6.77979 30.5155C6.88104 30.4749 6.97305 30.4149 7.05042 30.3389L11.3303 26.0944L15.5877 30.3167C15.665 30.3966 15.7577 30.4606 15.8604 30.5049ZM27.2603 25.4411C27.4865 25.3451 27.6885 25.2011 27.8518 25.0194C27.9806 24.8566 28.072 24.6683 28.1197 24.4674C28.1675 24.2664 28.1704 24.0577 28.1283 23.8555C27.9848 23.0994 27.6854 22.3803 27.2487 21.7425C26.812 21.1047 26.2472 20.5618 25.5892 20.1472C24.6316 19.5499 23.515 19.2471 22.3819 19.2772C21.2488 19.3074 20.1505 19.6693 19.2271 20.3167C18.4793 20.8489 17.8708 21.5487 17.4518 22.3582C17.0329 23.1677 16.8156 24.0637 16.8177 24.9722C16.8167 25.434 16.8746 25.8941 16.9898 26.3417C17.2749 27.445 17.8894 28.4389 18.7539 29.195C19.6184 29.951 20.6932 30.4346 21.8397 30.5833C22.0616 30.6086 22.2849 30.6216 22.5083 30.6222C22.975 30.6219 23.4396 30.5622 23.8907 30.4444C24.4985 30.2979 25.0772 30.0529 25.6033 29.7194C26.1606 29.3456 26.6515 28.8839 27.0562 28.3528L27.0929 28.3139C27.2541 28.1139 27.3282 27.8592 27.2989 27.6055C27.2877 27.5 27.2552 27.3978 27.2034 27.3048C27.1515 27.2117 27.0814 27.1298 26.997 27.0639C26.8456 26.9442 26.6579 26.8777 26.4638 26.875C26.3277 26.8788 26.1946 26.9149 26.0758 26.9802C25.9569 27.0455 25.8558 27.138 25.781 27.25L25.7641 27.2722C25.6851 27.3778 25.6033 27.4861 25.5102 27.5944C25.1965 27.9462 24.8244 28.243 24.4099 28.4722C23.8361 28.7783 23.1947 28.9405 22.5422 28.9444C21.7033 28.9365 20.8871 28.6755 20.2035 28.1967C19.52 27.7179 19.002 27.0443 18.7193 26.2667C18.6486 26.0604 18.5921 25.8498 18.55 25.6361C18.5514 25.6158 18.5514 25.5953 18.55 25.575H26.5427C26.789 25.5828 27.034 25.5371 27.2603 25.4411ZM31.2346 23.8583C31.2346 21.9722 31.3982 21.1833 33.043 20.9805V20.9917C33.1462 20.9831 33.2498 20.9804 33.3534 20.9833C33.4627 20.987 33.5716 20.9691 33.6738 20.9307C33.776 20.8922 33.8693 20.834 33.9482 20.7594C34.0271 20.6848 34.09 20.5954 34.1332 20.4964C34.1764 20.3975 34.1991 20.291 34.1997 20.1833C34.1998 19.9652 34.1129 19.7557 33.9579 19.5999C33.8028 19.4441 33.5918 19.3544 33.3703 19.35H33.1389C32.4386 19.3462 31.7557 19.5654 31.1922 19.975C31.1339 19.7892 31.0096 19.6304 30.8419 19.5275C30.6743 19.4247 30.4746 19.3849 30.2796 19.4152C30.0845 19.4456 29.9071 19.5442 29.7799 19.6929C29.6527 19.8417 29.5842 20.0306 29.5869 20.225V29.6917C29.5869 29.9068 29.6737 30.1131 29.8282 30.2652C29.9827 30.4173 30.1923 30.5028 30.4107 30.5028C30.6292 30.5028 30.8388 30.4173 30.9933 30.2652C31.1478 30.1131 31.2346 29.9068 31.2346 29.6917V23.8583ZM36.29 29.587C37.2422 30.203 38.3588 30.5266 39.4981 30.5167V30.5278C40.2506 30.5238 40.9949 30.3739 41.6886 30.0867C42.3822 29.7994 43.0116 29.3805 43.5408 28.8538C44.07 28.3271 44.4887 27.7029 44.7729 27.0169C45.0571 26.3308 45.2012 25.5964 45.1971 24.8555C45.1971 23.7338 44.8586 22.6373 44.2245 21.7053C43.5904 20.7733 42.6894 20.0477 41.6358 19.6208C40.5822 19.1938 39.4235 19.0846 38.3068 19.3072C37.1901 19.5297 36.1657 20.0738 35.3636 20.8706C34.5616 21.6673 34.018 22.6807 33.8019 23.7821C33.5858 24.8835 33.707 26.0233 34.1499 27.0568C34.5929 28.0904 35.3378 28.971 36.29 29.587ZM39.4981 20.8977C38.6991 20.89 37.9158 21.1162 37.2476 21.5477C36.5794 21.9791 36.0565 22.5964 35.7453 23.321C35.4341 24.0456 35.3486 24.8449 35.4997 25.6174C35.6508 26.39 36.0316 27.1009 36.5938 27.6599C37.156 28.219 37.8743 28.6009 38.6574 28.7572C39.4406 28.9136 40.2532 28.8373 40.9922 28.538C41.7312 28.2387 42.3632 27.73 42.808 27.0764C43.2527 26.4229 43.4902 25.6539 43.4902 24.8671C43.494 23.82 43.0759 22.8141 42.3275 22.07C41.5792 21.3259 40.5617 20.9043 39.4981 20.8977ZM39.4981 26.3088C39.208 26.311 38.9238 26.2283 38.6816 26.0713C38.4393 25.9142 38.2499 25.6898 38.1373 25.4266C38.0247 25.1634 37.9941 24.8731 38.0493 24.5928C38.1046 24.3124 38.2431 24.0545 38.4474 23.8517C38.6518 23.649 38.9126 23.5106 39.197 23.454C39.4813 23.3975 39.7763 23.4254 40.0445 23.5342C40.3127 23.643 40.5421 23.8277 40.7035 24.0651C40.8649 24.3024 40.9511 24.5815 40.9511 24.8671C40.9518 25.2478 40.7994 25.6132 40.527 25.8835C40.2547 26.1537 39.8847 26.3066 39.4981 26.3088ZM22.5197 20.9357C21.6205 20.9379 20.7478 21.2356 20.0399 21.7816C19.3321 22.3275 18.8296 23.0905 18.6122 23.9496H26.4328C26.2165 23.0889 25.7136 22.3244 25.0043 21.7781C24.295 21.2318 23.4202 20.9352 22.5197 20.9357Z" fill="#13B5EA"/>
<path d="M55.5447 30.219H59.9254C63.1316 30.219 65.3695 28.5469 65.3695 24.9995C65.3695 21.4365 63.1474 19.7801 59.9254 19.7801H55.5447V30.219ZM58.7985 22.4367H59.7191C61.1 22.4367 62.0047 23.2024 62.0047 24.9995C62.0047 26.7654 61.1 27.5624 59.7191 27.5624H58.7985V22.4367Z" fill="white"/>
<path d="M74.6517 27.578H69.8901V26.1403H74.0803V23.7963H69.8901V22.4211H74.62V19.7801H66.7633V30.219H74.6517V27.578Z" fill="white"/>
<path d="M81.037 26.1872H81.0052L78.9577 19.7801H75.5452L79.2434 30.219H82.64L86.3224 19.7801H82.9416L81.037 26.1872Z" fill="white"/>
<path d="M95.3063 27.578H90.5447V26.1403H94.7349V23.7963H90.5447V22.4211H95.2746V19.7801H87.4179V30.219H95.3063V27.578Z" fill="white"/>
<path d="M96.9935 19.7801V30.219H104.676V27.578H100.247V19.7801H96.9935Z" fill="white"/>
<path d="M110.586 19.5925C107.38 19.5925 105.348 21.6709 105.348 24.9995C105.348 28.3281 107.38 30.4066 110.586 30.4066C113.792 30.4066 115.808 28.3281 115.808 24.9995C115.808 21.6709 113.792 19.5925 110.586 19.5925ZM110.586 22.2648C111.792 22.2648 112.459 23.2962 112.459 24.9995C112.459 26.7029 111.792 27.7343 110.586 27.7343C109.38 27.7343 108.713 26.7029 108.713 24.9995C108.713 23.2962 109.38 22.2648 110.586 22.2648Z" fill="white"/>
<path d="M121.976 27.2655C124.357 27.2655 126.182 25.9372 126.182 23.5462C126.182 21.0927 124.563 19.7801 121.976 19.7801H117.199V30.219H120.452V27.2655H121.976ZM122.849 23.5618C122.849 24.4057 122.373 24.7964 121.579 24.7964H120.452V22.3117H121.579C122.389 22.3117 122.849 22.7336 122.849 23.5618Z" fill="white"/>
<path d="M135.329 27.578H130.567V26.1403H134.758V23.7963H130.567V22.4211H135.297V19.7801H127.441V30.219H135.329V27.578Z" fill="white"/>
<path d="M142.936 23.3587C142.936 24.0932 142.508 24.4213 141.762 24.4213H140.206V22.3429H141.762C142.556 22.3429 142.936 22.7023 142.936 23.3587ZM146.889 30.219C146.524 29.844 146.333 29.4689 146.19 28.922L145.793 27.2499C145.555 26.2966 145.016 25.7497 144.079 25.5934V25.5621C145.222 25.3746 146.285 24.4682 146.285 22.968C146.285 20.7021 144.587 19.7801 142.159 19.7801H137.016V30.219H140.206V26.8748H141.492C142.143 26.8748 142.508 27.0936 142.651 27.8281L142.873 29.0001C142.984 29.5627 143.095 29.8596 143.397 30.219H146.889Z" fill="white"/>
</g>
<defs>
<clipPath id="clip0">
<rect width="146.889" height="50" fill="white"/>
</clipPath>
</defs>
</svg>