<svg version="1.2" xmlns="http://www.w3.org/2000/svg" viewBox="0 0 51 50" width="250" height="245"><defs><clipPath clipPathUnits="userSpaceOnUse" id="cp1"><path d="m0 0h146.89v50h-146.89z"/></clipPath></defs><style>.a{fill:#fff}.b{fill:#13b5ea}</style><g clip-path="url(#cp1)"><path class="a" d="m4 17h42v17h-42z"/><path fill-rule="evenodd" class="b" d="m11.3 4.2c4.2-2.7 9.1-4.2 14.1-4.2 6.7 0 13.2 2.6 17.9 7.3 4.8 4.7 7.5 11.1 7.5 17.7 0 4.9-1.5 9.8-4.3 13.9-2.8 4.1-6.8 7.3-11.4 9.2-4.6 1.9-9.7 2.4-14.7 1.4-4.9-0.9-9.4-3.3-13-6.8-3.5-3.5-5.9-8-6.9-12.8-1-4.9-0.5-9.9 1.4-14.5 2-4.5 5.2-8.4 9.4-11.2zm4.6 26.3q0.1 0.1 0.3 0.1 0.2 0 0.4-0.2 0.2-0.1 0.3-0.3 0.1-0.3 0.1-0.5-0.1-0.2-0.2-0.4l-4.3-4.3 4.3-4.2q0.1-0.1 0.2-0.3 0-0.1 0-0.3 0-0.3-0.2-0.6-0.3-0.2-0.6-0.2-0.2 0-0.3 0-0.2 0.1-0.3 0.2l-4.3 4.2-4.2-4.2q-0.2-0.1-0.3-0.2-0.2 0-0.3 0-0.4 0-0.6 0.2-0.2 0.3-0.3 0.6 0.1 0.3 0.3 0.6l4.3 4.2-4.3 4.3q-0.1 0.1-0.2 0.2-0.1 0.2-0.1 0.3 0 0.4 0.3 0.6 0.2 0.3 0.6 0.3 0.1 0 0.3-0.1 0.1 0 0.3-0.2l4.2-4.2 4.3 4.2q0.1 0.1 0.3 0.2zm11.4-5.1q0.3-0.1 0.6-0.4 0.1-0.2 0.2-0.5 0.1-0.3 0-0.6-0.2-1.2-0.9-2.2-0.6-0.9-1.6-1.6c-1-0.6-2.1-0.9-3.2-0.8-1.2 0-2.2 0.4-3.2 1-0.7 0.5-1.3 1.2-1.7 2.1-0.5 0.8-0.7 1.7-0.7 2.6q0 0.7 0.2 1.3c0.3 1.1 0.9 2.1 1.8 2.9 0.8 0.8 1.9 1.2 3 1.4q0.4 0 0.7 0 0.7 0 1.4-0.2 0.9-0.2 1.7-0.7 0.8-0.5 1.5-1.3v-0.1q0.2-0.3 0.2-0.7 0-0.2-0.1-0.3-0.1-0.1-0.2-0.2-0.2-0.2-0.5-0.2-0.2 0-0.4 0.1-0.2 0.1-0.3 0.3-0.2 0.1-0.3 0.3-0.5 0.5-1.1 0.9-0.9 0.4-1.9 0.4c-0.8 0-1.6-0.2-2.3-0.7-0.7-0.5-1.2-1.2-1.5-1.9q-0.1-0.3-0.2-0.7 0.1 0 0 0h8q0.4 0 0.8-0.2zm3.9-1.5c0-1.9 0.2-2.7 1.8-2.9q0.2 0 0.4 0 0.1 0 0.3-0.1 0.1 0 0.2-0.1 0.2-0.2 0.2-0.3 0.1-0.2 0.1-0.3 0-0.4-0.2-0.6-0.3-0.2-0.6-0.2h-0.3c-0.7-0.1-1.3 0.2-1.9 0.6q-0.1-0.3-0.4-0.5-0.2-0.1-0.5-0.1-0.3 0.1-0.5 0.3-0.2 0.2-0.2 0.5v9.5q0 0.3 0.2 0.6 0.3 0.2 0.6 0.2 0.3 0 0.6-0.2 0.2-0.3 0.2-0.6zm5.1 5.7c0.9 0.6 2.1 1 3.2 1q1.1 0 2.2-0.5 1-0.4 1.8-1.2 0.8-0.8 1.3-1.8 0.4-1.1 0.4-2.2c0-1.1-0.3-2.2-1-3.2-0.6-0.9-1.5-1.6-2.6-2-1-0.5-2.2-0.6-3.3-0.4-1.1 0.3-2.1 0.8-2.9 1.6-0.8 0.8-1.4 1.8-1.6 2.9-0.2 1.1-0.1 2.3 0.3 3.3 0.5 1 1.2 1.9 2.2 2.5zm6-7.5c0.8 0.7 1.2 1.8 1.2 2.8 0 0.8-0.2 1.6-0.7 2.2-0.4 0.7-1.1 1.2-1.8 1.5-0.7 0.3-1.6 0.3-2.3 0.2-0.8-0.2-1.5-0.5-2.1-1.1-0.6-0.6-0.9-1.3-1.1-2-0.2-0.8-0.1-1.6 0.2-2.3 0.4-0.8 0.9-1.4 1.5-1.8 0.7-0.5 1.5-0.7 2.3-0.7 1.1 0 2.1 0.5 2.8 1.2zm-1.8 3.8c0.3-0.3 0.5-0.6 0.5-1q-0.1-0.4-0.3-0.8-0.2-0.4-0.7-0.5-0.4-0.2-0.8-0.1-0.4 0.1-0.8 0.4-0.3 0.3-0.4 0.7 0 0.5 0.1 0.9 0.2 0.4 0.6 0.6 0.4 0.2 0.8 0.2c0.4 0 0.8-0.1 1-0.4zm-15.5-4.1c0.7 0.6 1.2 1.3 1.4 2.2h-7.8c0.2-0.9 0.7-1.6 1.4-2.2 0.7-0.5 1.6-0.8 2.5-0.8 0.9 0 1.8 0.3 2.5 0.8z"/><g style="display:none"><path fill-rule="evenodd" class="a" d="m55.5 19.8h4.4c3.2 0 5.5 1.6 5.5 5.2 0 3.5-2.3 5.2-5.5 5.2h-4.4zm3.3 7.8h0.9c1.4 0 2.3-0.8 2.3-2.6 0-1.8-0.9-2.5-2.3-2.5h-0.9z"/><path class="a" d="m74.7 30.2h-7.9v-10.4h7.8v2.6h-4.7v1.4h4.2v2.3h-4.2v1.5h4.8z"/><path class="a" d="m82.9 19.8h3.4l-3.7 10.4h-3.4l-3.7-10.4h3.5l2 6.4z"/><path class="a" d="m95.3 30.2h-7.9v-10.4h7.9v2.6h-4.8v1.4h4.2v2.3h-4.2v1.5h4.8z"/><path class="a" d="m100.2 19.8v7.8h4.5v2.6h-7.7v-10.4z"/><path fill-rule="evenodd" class="a" d="m115.8 25c0 3.3-2 5.4-5.2 5.4-3.2 0-5.3-2.1-5.3-5.4 0-3.3 2.1-5.4 5.3-5.4 3.2 0 5.2 2.1 5.2 5.4zm-7.1 0c0 1.7 0.7 2.7 1.9 2.7 1.2 0 1.9-1 1.9-2.7 0-1.7-0.7-2.7-1.9-2.7-1.2 0-1.9 1-1.9 2.7z"/><path fill-rule="evenodd" class="a" d="m120.5 27.3v2.9h-3.3v-10.4h4.8c2.6 0 4.2 1.3 4.2 3.7 0 2.4-1.8 3.8-4.2 3.8zm1.1-5h-1.1v2.5h1.1c0.8 0 1.3-0.4 1.3-1.2 0-0.9-0.5-1.3-1.3-1.3z"/><path class="a" d="m135.3 30.2h-7.9v-10.4h7.9v2.6h-4.7v1.4h4.2v2.3h-4.2v1.5h4.7z"/><path fill-rule="evenodd" class="a" d="m143.4 30.2c-0.3-0.3-0.4-0.6-0.5-1.2l-0.2-1.2c-0.2-0.7-0.6-0.9-1.2-0.9h-1.3v3.3h-3.2v-10.4h5.2c2.4 0 4.1 0.9 4.1 3.2 0 1.5-1.1 2.4-2.2 2.6 0.9 0.1 1.5 0.7 1.7 1.6l0.4 1.7c0.1 0.6 0.3 0.9 0.7 1.3zm-1.6-7.9h-1.6v2.1h1.6c0.7 0 1.1-0.3 1.1-1 0-0.7-0.4-1.1-1.1-1.1z"/></g></g></svg>