<svg version="1.2" xmlns="http://www.w3.org/2000/svg" viewBox="0 0 90 90" width="90" height="90">
	<title>svg_quick_books-svg</title>
	<style>
		.s0 { fill: #2ca01c } 
		.s1 { fill: #ffffff } 
	</style>
	<circle id="Layer" class="s0" cx="45" cy="45" r="45"/>
	<path id="Layer" class="s1" d="m13.8 38.3c0.9-2.1 2.2-4 3.8-5.7 1.7-1.6 3.6-2.9 5.7-3.8 2.1-0.8 4.4-1.3 6.7-1.3h12.5v47q-1.3 0-2.5-0.5-1.2-0.5-2.1-1.4-0.9-0.9-1.4-2.1-0.5-1.2-0.5-2.5v-34h-6c-2.9 0-5.7 1.2-7.8 3.2-2 2.1-3.2 4.9-3.2 7.8 0 2.9 1.2 5.7 3.2 7.8 2.1 2 4.9 3.2 7.8 3.2h2.5v6.5h-2.5c-2.3 0-4.6-0.5-6.7-1.3-2.1-0.9-4-2.2-5.7-3.8-1.6-1.7-2.9-3.6-3.8-5.7-0.8-2.1-1.3-4.4-1.3-6.7 0-2.3 0.5-4.6 1.3-6.7zm58.6-5.7c3.3 3.3 5.1 7.8 5.1 12.4 0 4.6-1.8 9.1-5.1 12.4-3.3 3.3-7.8 5.1-12.4 5.1h-12.5v-47q1.3 0 2.5 0.5 1.2 0.5 2.1 1.4 0.9 0.9 1.4 2.1 0.5 1.2 0.5 2.5v34h6c2.9 0 5.7-1.2 7.8-3.2 2-2.1 3.2-4.9 3.2-7.8 0-2.9-1.2-5.7-3.2-7.8-2.1-2-4.9-3.2-7.8-3.2h-2.5v-6.5h2.5c4.6 0 9.1 1.8 12.4 5.1z"/>
</svg>